<svg xmlns="https://www.w3.org/2000/svg" xmlns:xlink="https://www.w3.org/1999/xlink" preserveAspectRatio="xMidYMid" width="21" height="19" viewBox="0 0 21 19">
  <defs>
    <style>
      .cls-1 {
        fill: #000;
        fill-rule: evenodd;
      }
    </style>
  </defs>
  <path d="M21.000,0.006 L10.500,6.048 L0.000,0.007 L0.000,6.911 L4.500,9.500 L0.000,12.089 L0.000,18.994 L5.500,15.829 L10.500,18.706 L15.500,15.829 L21.000,18.993 L21.000,12.089 L16.500,9.500 L21.000,6.911 L21.000,0.006 ZM5.000,14.966 L1.000,17.268 L1.000,12.664 L5.000,10.363 L5.000,14.966 ZM10.000,17.267 L6.000,14.966 L6.000,9.212 L1.000,6.335 L1.000,1.733 L10.000,6.911 L10.000,17.267 ZM20.000,12.664 L20.000,17.267 L16.000,14.966 L16.000,10.363 L20.000,12.664 ZM20.000,6.336 L15.000,9.212 L15.000,14.966 L11.000,17.267 L11.000,6.911 L20.000,1.733 L20.000,6.336 Z" class="cls-1"/>
</svg>
